Patient4_TMGait_0pt7_01_right_34_GRF.mot
version=1
nRows=32
nColumns=19
inDegrees=no
endheader
time	F1x	F1y	F1z	M1x	M1y	M1z	F2x	F2y	F2z	M2x	M2y	M2z	EC1x	EC1y	EC1z	EC2x	EC2y	EC2z
38.71	10.0043	753.3749	74.3784	-279.5179	-65.1504	745.96	5.3264	-22.1937	-3.4415	-2.8007	1.5699	-28.1909	-0.0592	0.0182	-0.0073	-0.0462	0.0165	0.9585
38.7214	14.6563	750.6407	71.7187	-277.8983	-61.3272	743.1303	3.5872	-13.2797	-2.319	-1.2891	1.2121	-17.0117	-0.0592	0.0182	-0.0073	-0.0462	0.0165	0.9585
38.7329	18.9879	746.768	69.2895	-275.9445	-57.6346	738.1023	2.0671	-5.7532	-1.3699	-0.0056611	0.88934	-7.5515	-0.0592	0.0182	-0.0073	-0.0462	0.0165	0.9585
38.7443	22.7749	742.0532	67.2781	-273.7843	-54.3148	731.2054	0.83684	0.010941	-0.64005	0.9873	0.62749	-0.27931	-0.0592	0.0182	-0.0073	-0.0462	0.0165	0.9585
38.7557	26.001	736.9391	65.752	-271.5669	-51.4629	723.0457	-0.025641	4.0342	-0.12972	1.6912	0.426	4.8037	-0.0592	0.0182	-0.0073	-0.0462	0.0165	0.9585
38.7671	28.7301	731.8859	64.7259	-269.4297	-49.1131	714.3122	-0.61143	6.567	0.19488	2.1451	0.29355	8.0345	-0.0592	0.0182	-0.0073	-0.0462	0.0165	0.9585
38.7786	31.0928	727.2673	64.1346	-267.4746	-47.2036	705.6056	-0.93737	7.9168	0.35917	2.3932	0.2252	9.7665	-0.0592	0.0182	-0.0073	-0.0462	0.0165	0.9585
38.79	33.2068	723.3605	63.9244	-265.7665	-45.6826	697.4254	-1.1212	8.3866	0.39967	2.4742	0.2202	10.3941	-0.0592	0.0182	-0.0073	-0.0462	0.0165	0.9585
38.8014	35.1488	720.3348	63.9687	-264.3415	-44.4333	690.1025	-1.1758	8.164	0.3498	2.4001	0.25758	10.141	-0.0592	0.0182	-0.0073	-0.0462	0.0165	0.9585
38.8129	37.0102	718.3137	64.1665	-263.2244	-43.3551	683.8811	-1.1689	7.401	0.23983	2.1737	0.33277	9.2128	-0.0592	0.0182	-0.0073	-0.0462	0.0165	0.9585
38.8243	38.8503	717.3783	64.4235	-262.4318	-42.3546	678.9026	-1.0877	6.095	0.10434	1.7632	0.41376	7.6016	-0.0592	0.0182	-0.0073	-0.0462	0.0165	0.9585
38.8357	40.7321	717.5502	64.7053	-261.958	-41.3919	675.2145	-0.95635	4.2385	-0.037882	1.1377	0.48863	5.3348	-0.0592	0.0182	-0.0073	-0.0462	0.0165	0.9585
38.8471	42.7069	718.7451	65.0219	-261.7605	-40.4705	672.7629	-0.73889	1.7384	-0.16262	0.25357	0.52107	2.2926	-0.0592	0.0182	-0.0073	-0.0462	0.0165	0.9585
38.8586	44.8143	720.7897	65.3939	-261.7641	-39.6026	671.3807	-0.44918	-1.3893	-0.23771	-0.892	0.47498	-1.498	-0.0592	0.0182	-0.0073	-0.0462	0.0165	0.9585
38.87	47.0763	723.4087	65.8725	-261.8551	-38.8291	670.7985	-0.031692	-5.0511	-0.2347	-2.2567	0.29377	-5.9482	-0.0592	0.0182	-0.0073	-0.0462	0.0165	0.9585
38.8814	49.5114	726.236	66.485	-261.8892	-38.1669	670.6396	0.49321	-8.8564	-0.11685	-3.6857	-0.066202	-10.5813	-0.0592	0.0182	-0.0073	-0.0462	0.0165	0.9585
38.8929	52.0795	728.8218	67.2974	-261.6993	-37.6874	670.458	1.1428	-12.0692	0.16381	-4.8827	-0.66699	-14.5302	-0.0592	0.0182	-0.0073	-0.0462	0.0165	0.9585
38.9043	54.7485	730.7072	68.3202	-261.1255	-37.4091	669.7689	1.842	-13.3931	0.65051	-5.339	-1.5337	-16.2222	-0.0592	0.0182	-0.0073	-0.0462	0.0165	0.9585
38.9157	57.4637	731.5085	69.5558	-260.0427	-37.3479	668.1779	2.4883	-10.942	1.3906	-4.3097	-2.6738	-13.4029	-0.0592	0.0182	-0.0073	-0.0462	0.0165	0.9585
38.9271	60.223	730.8867	70.9378	-258.3687	-37.4329	665.3227	2.8533	-2.1331	2.3982	-0.78922	-4.0084	-2.9367	-0.0592	0.0182	-0.0073	-0.0462	0.0165	0.9585
38.9386	63.0497	728.5555	72.332	-256.0583	-37.5299	660.9328	2.6308	16.1452	3.6413	6.4334	-5.3578	18.9331	-0.0592	0.0182	-0.0073	-0.0462	0.0165	0.9585
38.95	65.9736	724.067	73.5268	-253.0344	-37.4402	654.5849	1.3572	47.2538	4.9829	18.6511	-6.3484	56.2914	-0.0592	0.0182	-0.0073	-0.0462	0.0165	0.9585
38.9614	68.9752	716.6677	74.2126	-249.1171	-36.9026	645.6076	-1.5082	94.0644	6.1549	36.9566	-6.403	112.6389	-0.0592	0.0182	-0.0073	-0.0462	0.0165	0.9585
38.9729	71.9461	705.0522	74.0544	-243.9316	-35.6725	632.854	-6.7355	157.9393	6.7141	61.8326	-4.657	189.6949	-0.0592	0.0182	-0.0073	-0.0462	0.0165	0.9585
38.9843	74.5801	687.3619	72.6758	-236.8963	-33.545	614.745	-15.387	237.2986	6.0888	92.5913	0.017323	285.633	-0.0592	0.0182	-0.0073	-0.0462	0.0165	0.9585
38.9957	76.408	661.3648	69.7616	-227.2801	-30.434	589.4088	-28.4228	326.0423	3.4883	126.765	8.9023	393.2115	-0.0592	0.0182	-0.0073	-0.0462	0.0165	0.9585
39.0071	76.8342	625.0298	65.1011	-214.3923	-26.3843	555.2048	-44.833	413.3965	-2.1414	160.0776	22.7182	499.4412	-0.0592	0.0182	-0.0073	-0.0462	0.0165	0.9585
39.0186	75.3226	577.2292	58.7741	-197.8243	-21.6753	511.2487	-61.4824	488.6912	-11.3024	188.3544	40.6397	591.1718	-0.0592	0.0182	-0.0073	-0.0462	0.0165	0.9585
39.03	71.4533	518.4636	51.1218	-177.682	-16.7438	458.092	-76.0352	547.5431	-22.8345	209.8874	60.3409	662.7931	-0.0592	0.0182	-0.0073	-0.0462	0.0165	0.9585
39.0414	65.1518	450.77	42.806	-154.5804	-12.163	397.5396	-87.2871	591.7565	-35.4541	225.4226	79.8188	716.211	-0.0592	0.0182	-0.0073	-0.0462	0.0165	0.9585
39.0529	56.6418	377.5509	34.503	-129.5995	-8.3935	332.5833	-94.7868	625.8016	-47.3311	236.8168	96.7905	756.738	-0.0592	0.0182	-0.0073	-0.0462	0.0165	0.9585
39.0643	46.4831	303.0288	26.7339	-104.1329	-5.6536	266.8509	-98.3477	653.5066	-57.2278	245.685	109.773	788.9339	-0.0592	0.0182	-0.0073	-0.0462	0.0165	0.9585
